<svg width="281" height="383" viewBox="0 0 281 383" fill="none" xmlns="http://www.w3.org/2000/svg">
<path fill-rule="evenodd" clip-rule="evenodd" d="M78.9832 0.682622C65.711 3.38917 44.597 18.1026 36.5798 30.2325C24.74 48.147 27.2217 72.1018 42.367 86.0926C51.8266 94.8321 71.1138 102.221 84.5676 102.262C88.0384 102.273 91.5793 102.727 92.4357 103.273C93.6553 104.048 94.0634 127.723 94.3139 212C94.5668 296.846 94.9675 382.587 96.1995 382.998C97.4441 383.414 97.7646 298.531 97.7646 212.313V103.844L107.468 102.972C120.936 101.762 127.095 100.095 136.953 94.9864C153.072 86.6334 161.601 74.6704 162.584 59.0359C163.06 51.4859 162.666 49.0918 159.93 42.9146C158.162 38.9256 154.611 32.9968 152.039 29.7394C138.542 12.6544 131.367 8.08704 116.546 7.14722C110.23 6.74694 105.297 5.61639 101.482 3.69659C94.5856 0.227137 86.5183 -0.854476 78.9832 0.682622ZM102.26 8.14853C109.68 11.9379 116.076 16.558 115.159 17.4665C114.888 17.7325 111.593 17.3887 107.833 16.7023C99.7367 15.2242 95.1152 15.9582 90.1356 19.5105C87.0717 21.6976 85.8096 21.9172 82.4152 20.8544C80.1827 20.1555 76.3851 19.6673 73.9748 19.7702C71.5646 19.8731 65.984 19.838 61.5729 19.6924L53.5532 19.4277L55.9372 16.7876C57.2481 15.3359 60.7365 12.7297 63.6889 10.9956C76.8559 3.26244 90.6915 2.24105 102.26 8.14853ZM130.186 14.0999C137.635 17.6421 153.409 35.7686 157.426 45.4053C160.568 52.9427 160.076 63.2369 156.194 71.1909C154.364 74.9376 151.833 78.9416 150.569 80.0872C148.349 82.1011 148.325 81.9104 149.849 74.4985C152.302 62.5706 150.006 51.7883 143.467 44.5232C141.913 42.7979 139.695 38.4576 138.537 34.8777C136.278 27.8974 129.086 20.1103 123.63 18.7376C121.983 18.3235 119.353 16.2481 117.787 14.125L114.941 10.2666L120.36 11.1349C123.34 11.613 127.762 12.9468 130.186 14.0999ZM111.538 20.7038C123.401 22.5358 124.36 22.8432 127.956 25.9826C135.977 32.9818 138.777 44.1053 135.147 54.5413L133.713 58.6607L131.446 52.6729C127.518 42.3047 120.753 37.0284 111.287 36.9506C108.326 36.9255 104.495 36.0986 102.773 35.1124C98.6423 32.7459 91.0334 32.7609 86.4332 35.145C82.5041 37.1802 82.0333 36.5089 83.9152 31.5501C86.1176 25.7455 94.7909 19.5833 100.895 19.4867C102.272 19.4641 107.061 20.0124 111.538 20.7038ZM62.9426 27.5047C55.7644 35.6983 54.3708 54.4108 60.0628 66.1944C61.6442 69.4668 66.138 75.4019 70.0495 79.3846C73.9623 83.366 79.6856 89.3788 82.7683 92.7466L88.3739 98.8699L79.6093 98.0606C47.6546 95.1094 28.1507 72.9639 33.8415 46.0904C36.8891 31.6981 46.5703 23.192 59.9026 23.192H66.7215L62.9426 27.5047ZM83.0851 23.9574C83.5058 24.3778 82.7545 26.7694 81.416 29.2714C80.0775 31.7734 78.9832 35.1124 78.9832 36.6921C78.9832 38.2719 77.0437 42.3913 74.6723 45.8457C69.9506 52.7244 68.2077 60.3484 69.4398 68.7353C70.1748 73.7356 70.1109 73.8799 68.2015 71.5008C55.8408 56.0947 58.5553 31.5526 73.3488 24.9638C77.3705 23.1719 81.8405 22.7102 83.0851 23.9574ZM103.169 38.4839C104.672 39.3033 108.923 40.3925 112.614 40.9044C131.506 43.5231 134.411 66.8732 118.205 85.8479C112.935 92.0176 102.329 98.4496 97.3978 98.4671C92.4783 98.4835 82.9311 89.1793 77.964 79.5276C70.5667 65.1517 73.2687 48.6878 84.3459 40.6459C89.8502 36.6495 98.0676 35.7059 103.169 38.4839ZM144.339 52.3655C150.006 63.149 147.375 78.4661 138.271 87.7025C133.443 92.5986 122.425 97.5173 114.727 98.2099L108.407 98.7796L113.061 95.5573C115.622 93.7856 119.43 90.4705 121.523 88.1918C125.502 83.8603 132.823 69.9813 132.823 66.7691C132.823 65.7452 133.69 64.1855 134.75 63.3046C135.809 62.4225 137.592 58.401 138.712 54.3669C139.831 50.3328 140.924 47.0327 141.142 47.0327C141.359 47.0327 142.797 49.4331 144.339 52.3655Z" fill="white"/>
<path d="M280.718 117.961V171.021H274.76C273.436 142.239 265.161 127.848 249.935 127.848H161.229V229.684H220.808C227.207 229.684 231.4 227.047 233.386 221.774C235.372 216.281 236.806 207.823 237.689 196.398H243.647V272.527H237.689C236.806 261.102 235.372 252.753 233.386 247.48C231.4 241.987 227.207 239.241 220.808 239.241H161.229V331.519C161.229 335.474 162.884 338.33 166.194 340.088C169.504 341.846 174.469 342.725 181.089 342.725H190.357V348.657H114.229V342.725H123.496C130.116 342.725 135.081 341.846 138.391 340.088C141.701 338.33 143.356 335.474 143.356 331.519V135.428C143.356 131.473 141.701 128.617 138.391 126.859C135.081 125.102 130.116 124.223 123.496 124.223H114.229V117.961H280.718Z" fill="white"/>
<path d="M0 342.725H9.27068C15.8926 342.725 20.859 341.846 24.17 340.088C27.481 338.33 29.1364 335.474 29.1364 331.519V135.428C29.1364 131.473 27.481 128.617 24.17 126.859C20.859 125.102 15.8926 124.223 9.27068 124.223H0V117.961H76.152V124.223H66.8814C60.2594 124.223 55.293 125.102 51.982 126.859C48.6711 128.617 47.0156 131.473 47.0156 135.428V331.519C47.0156 335.474 48.6711 338.33 51.982 340.088C55.293 341.846 60.2594 342.725 66.8814 342.725H76.152V348.657H0V342.725Z" fill="white"/>
</svg>
