<svg width="1301" height="124" viewBox="0 0 1301 124" fill="none" xmlns="http://www.w3.org/2000/svg">
<path d="M1204.83 5.58557L1205 3.04663H1246.13C1257.75 3.04663 1266.72 5.58558 1273.04 10.6635C1279.36 15.7413 1282.52 23.3018 1282.52 33.3447C1282.52 39.8895 1279.98 46.7164 1274.9 53.8255C1269.94 60.9345 1265.25 65.5046 1260.85 67.5358L1292.17 118.484L1300.46 118.992C1300.46 119.104 1300.41 119.951 1300.29 121.531L1281.84 121.7L1249.68 69.5669H1227.17V118.315L1239.02 118.992C1239.02 119.104 1238.96 119.951 1238.85 121.531L1204.83 121.7L1205 119.33L1213.8 118.145C1214.59 118.032 1215.21 117.525 1215.66 116.622V8.29378C1215.32 7.27821 1214.7 6.714 1213.8 6.60116L1204.83 5.58557ZM1245.28 5.58557H1227.17V67.028H1256.11C1261.98 60.3703 1265.93 54.5025 1267.96 49.4246C1269.99 44.2339 1271.01 39.2124 1271.01 34.3602C1271.01 24.8815 1268.81 17.7161 1264.41 12.8639C1260.01 8.01167 1253.63 5.58557 1245.28 5.58557Z" fill="white"/>
<path d="M1114.74 5.58557L1114.91 3.04663H1187.35L1187.18 3.55442L1189.38 27.4205L1186 28.7746L1183.29 6.4319H1137.25V61.1038H1177.7C1178.27 61.2166 1178.78 61.1038 1179.23 60.7652C1179.68 60.3139 1179.9 59.7497 1179.9 59.0726L1180.58 47.3935L1183.29 47.055V75.9989C1183.18 75.9989 1182.33 76.0553 1180.75 76.1682L1180.07 64.489H1137.25V118.145H1187.86L1191.07 91.0633L1194.29 91.9096L1191.75 121.531H1148.76L1114.74 121.7L1114.91 119.33L1123.71 118.145C1124.84 118.032 1125.51 117.299 1125.74 115.945V8.80157C1125.51 7.44747 1124.84 6.714 1123.71 6.60116L1114.74 5.58557Z" fill="white"/>
<path d="M982.018 3.04663C982.018 3.15947 982.074 4.00578 982.187 5.58557L968.985 6.77042L997.082 117.13L1028.57 3.04663H1031.1L1030.6 4.40074L1031.27 3.04663L1061.06 117.468L1090.85 8.97083C1090.85 7.84242 1090.35 7.22178 1089.33 7.10894L1073.42 5.75484L1073.25 3.21589L1106.43 3.04663C1106.43 3.15947 1106.48 4.00578 1106.6 5.58557L1095.59 6.60116L1062.08 121.531H1051.75L1026.2 20.4807L998.267 121.531H987.773L958.66 7.95526C958.321 7.16536 957.757 6.714 956.967 6.60116L948.165 5.75484L947.996 3.21589L982.018 3.04663Z" fill="white"/>
<path d="M843.959 62.6273C843.959 44.0084 848.698 29.1697 858.177 18.1112C867.769 7.05269 879.673 1.52344 893.891 1.52344C927.18 1.52344 943.824 21.8914 943.824 62.6273C943.824 81.359 939.085 96.1413 929.606 106.974C920.127 117.694 908.222 123.054 893.891 123.054C860.603 123.054 843.959 102.912 843.959 62.6273ZM855.469 62.2888C855.469 100.542 868.276 119.669 893.891 119.669C904.95 119.669 914.09 114.591 921.312 104.435C928.647 94.2794 932.314 80.2306 932.314 62.2888C932.314 24.0354 919.507 4.9087 893.891 4.9087C882.946 4.9087 873.806 10.043 866.471 20.3116C859.136 30.5802 855.469 44.5726 855.469 62.2888Z" fill="white"/>
<path d="M797.192 3.04663C797.192 3.15947 797.248 4.00578 797.361 5.58557L785.682 6.60116V118.145H832.398L835.784 91.0633L839 91.9096L836.461 121.531H797.192L763.17 121.7L763.339 119.33L772.141 118.145C773.269 118.032 773.946 117.299 774.172 115.945V8.80157C773.946 7.44747 773.269 6.714 772.141 6.60116L763.339 5.75484L763.17 3.21589L797.192 3.04663Z" fill="white"/>
<path d="M676.704 5.58557L676.873 3.04663H749.318L749.149 3.55442L751.349 27.4205L747.964 28.7746L745.255 6.4319H699.216V61.1038H739.67C740.234 61.2166 740.742 61.1038 741.193 60.7652C741.645 60.3139 741.87 59.7497 741.87 59.0726L742.547 47.3935L745.255 47.055V75.9989C745.143 75.9989 744.296 76.0553 742.717 76.1682L742.039 64.489H699.216V118.315L710.895 118.992C710.895 119.104 710.839 119.951 710.726 121.531L676.704 121.7L676.873 119.33L685.675 118.145C686.803 118.032 687.48 117.299 687.706 115.945V8.80157C687.48 7.44747 686.803 6.714 685.675 6.60116L676.704 5.58557Z" fill="white"/>
<path d="M569.363 118.314C577.713 118.314 585.048 115.888 591.367 111.036C597.686 106.071 600.846 98.5672 600.846 88.5242C600.846 84.0106 599.717 80.1739 597.461 77.0144C595.317 73.742 592.439 71.2594 588.828 69.5668C585.217 67.7613 581.268 66.238 576.98 64.9967C572.692 63.6426 568.404 62.2321 564.116 60.7651C559.828 59.2982 555.878 57.5491 552.267 55.518C548.657 53.4868 545.723 50.6094 543.466 46.8856C541.322 43.1618 540.25 38.7046 540.25 33.5138C540.25 24.4865 543.353 17.0953 549.559 11.3404C555.766 5.58547 564.059 2.70801 574.441 2.70801C584.822 2.70801 594.752 3.89284 604.231 6.26252L606.093 27.4204L602.877 28.7745L601.184 15.4027C592.834 9.19641 584.992 6.09326 577.657 6.09326C570.322 6.09326 564.172 8.3501 559.207 12.8638C554.242 17.2646 551.76 23.9223 551.76 32.8368C551.76 38.0275 553.847 42.1462 558.022 45.193C562.198 48.2397 567.219 50.6094 573.087 52.302C579.067 53.9946 584.992 55.9129 590.859 58.0569C596.84 60.2009 601.918 63.8119 606.093 68.8897C610.268 73.9676 612.356 80.5689 612.356 88.6935C612.356 99.6392 608.463 107.877 600.677 113.406C592.891 118.935 582.622 121.7 569.871 121.7C557.12 121.7 546.061 118.258 536.695 111.375L536.865 93.4329L540.081 92.5865L540.419 102.235C543.466 106.523 547.641 110.303 552.945 113.575C558.248 116.735 563.721 118.314 569.363 118.314Z" fill="white"/>
<path d="M510.426 13.8795V8.46314C510.426 4.62652 510.37 1.97474 510.257 0.507793H508.564L514.319 0C514.319 1.57979 514.263 3.15957 514.15 4.73936C514.037 6.31914 513.924 7.78609 513.812 9.14019C513.812 10.3815 513.755 11.5663 513.642 12.6947C513.529 13.8231 513.417 14.8387 513.304 15.7414C513.191 16.6442 513.078 17.4341 512.965 18.1111C512.852 18.6753 512.74 19.296 512.627 19.973L510.257 20.3115L510.426 18.4496C510.426 17.2084 510.426 15.685 510.426 13.8795Z" fill="white"/>
<path d="M459.16 3.04663C459.16 3.15947 459.217 4.00578 459.33 5.58557L447.651 6.60116V118.145H494.367L497.752 91.0633L500.968 91.9096L498.429 121.531H459.16L425.139 121.7L425.308 119.33L434.11 118.145C435.238 118.032 435.915 117.299 436.141 115.945V8.80157C435.915 7.44747 435.238 6.714 434.11 6.60116L425.308 5.75484L425.139 3.21589L459.16 3.04663Z" fill="white"/>
<path d="M334.542 5.58557L334.711 3.04663H407.156L406.986 3.55442L409.187 27.4205L405.802 28.7746L403.093 6.4319H357.054V61.1038H397.508C398.072 61.2166 398.58 61.1038 399.031 60.7652C399.482 60.3139 399.708 59.7497 399.708 59.0726L400.385 47.3935L403.093 47.055V75.9989C402.981 75.9989 402.134 76.0553 400.554 76.1682L399.877 64.489H357.054V118.145H407.664L410.88 91.0633L414.096 91.9096L411.557 121.531H368.564L334.542 121.7L334.711 119.33L343.513 118.145C344.641 118.032 345.318 117.299 345.544 115.945V8.80157C345.318 7.44747 344.641 6.714 343.513 6.60116L334.542 5.58557Z" fill="white"/>
<path d="M243.811 5.58557L243.98 3.04663H280.202C304.576 3.04663 316.763 12.5818 316.763 31.652C316.763 38.9868 311.911 46.9985 302.206 55.6874C316.537 59.1855 323.703 69.4541 323.703 86.4932C323.703 99.8085 320.317 109.005 313.547 114.083C306.889 119.048 296.621 121.531 282.741 121.531H277.832L243.811 121.7L243.98 119.33L252.781 118.145C253.91 118.032 254.587 117.299 254.813 115.945V8.97083C254.587 7.50389 253.91 6.714 252.781 6.60116L243.811 5.58557ZM286.126 56.7029H266.323V118.992H281.895C302.093 118.992 312.193 108.385 312.193 87.1702C312.193 76.3374 309.992 68.5513 305.591 63.812C301.303 59.0726 294.815 56.7029 286.126 56.7029ZM286.973 54.164C291.148 54.164 294.759 54.3897 297.805 54.841C302.77 47.055 305.253 39.6638 305.253 32.6676C305.253 14.6129 296.621 5.58557 279.356 5.58557H266.323V54.164H286.973Z" fill="white"/>
<path d="M127.8 121.7L127.969 119.33L136.771 118.145C137.561 118.032 138.238 117.299 138.802 115.945L175.363 3.04663H186.534L225.464 118.315L237.144 118.992C237.144 119.104 237.087 119.951 236.974 121.531L203.122 121.7C203.122 120.684 203.178 119.894 203.291 119.33L212.093 118.145C212.995 118.032 213.447 117.355 213.447 116.114L204.137 88.5243H151.327L142.356 117.976L161.991 118.992C161.991 119.104 161.934 119.951 161.822 121.531L127.8 121.7ZM176.547 6.26262L152.343 85.1391H202.952L176.547 6.26262Z" fill="white"/>
<path d="M79.5906 118.314C87.9409 118.314 95.2756 115.888 101.595 111.036C107.914 106.071 111.073 98.5672 111.073 88.5242C111.073 84.0106 109.945 80.1739 107.688 77.0144C105.544 73.742 102.667 71.2594 99.0558 69.5668C95.4448 67.7613 91.4954 66.238 87.2074 64.9967C82.9194 63.6426 78.6314 62.2321 74.3434 60.7651C70.0554 59.2982 66.106 57.5491 62.495 55.518C58.8841 53.4868 55.9502 50.6094 53.6934 46.8856C51.5494 43.1618 50.4774 38.7046 50.4774 33.5138C50.4774 24.4865 53.5805 17.0953 59.7868 11.3404C65.9931 5.58547 74.287 2.70801 84.6684 2.70801C95.0499 2.70801 104.98 3.89284 114.459 6.26252L116.321 27.4204L113.105 28.7745L111.412 15.4027C103.062 9.19641 95.2192 6.09326 87.8844 6.09326C80.5497 6.09326 74.3998 8.3501 69.4348 12.8638C64.4698 17.2646 61.9872 23.9223 61.9872 32.8368C61.9872 38.0275 64.0748 42.1462 68.25 45.193C72.4251 48.2397 77.4466 50.6094 83.3143 52.302C89.295 53.9946 95.2192 55.9129 101.087 58.0569C107.068 60.2009 112.145 63.8119 116.321 68.8897C120.496 73.9676 122.583 80.5689 122.583 88.6935C122.583 99.6392 118.69 107.877 110.904 113.406C103.118 118.935 92.8495 121.7 80.0984 121.7C67.3472 121.7 56.2887 118.258 46.9229 111.375L47.0921 93.4329L50.3081 92.5865L50.6466 102.235C53.6934 106.523 57.8685 110.303 63.1721 113.575C68.4756 116.735 73.9485 118.314 79.5906 118.314Z" fill="white"/>
<path d="M0 121.7L0.169263 119.33L8.97093 118.145C10.0993 118.032 10.7764 117.299 11.0021 115.945H11.1713V8.97083H11.0021C10.7764 7.50389 10.0993 6.714 8.97093 6.60116L0.169263 5.75484L0 3.21589L34.0218 3.04663C34.0218 3.15947 34.0782 4.00578 34.1911 5.58557L22.6812 6.60116V118.315L34.1911 118.992C34.1911 119.104 34.1347 119.951 34.0218 121.531L0 121.7Z" fill="white"/>
</svg>
