<svg width="1031" height="1031" viewBox="0 0 1031 1031" fill="none" xmlns="http://www.w3.org/2000/svg">
<rect width="1031" height="1031" fill="#02240D"/>
<path fill-rule="evenodd" clip-rule="evenodd" d="M469.624 232.683C456.352 235.389 435.238 250.103 427.22 262.233C415.381 280.147 417.862 304.102 433.008 318.093C442.467 326.832 461.754 334.221 475.208 334.262C478.679 334.273 482.22 334.727 483.076 335.273C484.296 336.048 484.704 359.723 484.954 444C485.207 528.846 485.608 614.587 486.84 614.998C488.085 615.414 488.405 530.531 488.405 444.313V335.844L498.109 334.972C511.576 333.762 517.736 332.095 527.593 326.986C543.713 318.633 552.242 306.67 553.225 291.036C553.701 283.486 553.306 281.092 550.57 274.915C548.802 270.926 545.252 264.997 542.68 261.739C529.182 244.654 522.008 240.087 507.187 239.147C500.871 238.747 495.938 237.616 492.123 235.697C485.226 232.227 477.159 231.146 469.624 232.683ZM492.9 240.149C500.32 243.938 506.717 248.558 505.799 249.466C505.529 249.732 502.233 249.389 498.473 248.702C490.377 247.224 485.756 247.958 480.776 251.511C477.712 253.698 476.45 253.917 473.056 252.854C470.823 252.155 467.026 251.667 464.615 251.77C462.205 251.873 456.625 251.838 452.213 251.692L444.194 251.428L446.578 248.788C447.889 247.336 451.377 244.73 454.33 242.996C467.497 235.262 481.332 234.241 492.9 240.149ZM520.827 246.1C528.276 249.642 544.05 267.769 548.066 277.405C551.209 284.943 550.717 295.237 546.834 303.191C545.005 306.938 542.473 310.942 541.21 312.087C538.99 314.101 538.966 313.91 540.49 306.498C542.943 294.571 540.646 283.788 534.108 276.523C532.554 274.798 530.335 270.458 529.177 266.878C526.918 259.897 519.726 252.11 514.271 250.738C512.623 250.323 509.994 248.248 508.427 246.125L505.581 242.267L511.001 243.135C513.981 243.613 518.403 244.947 520.827 246.1ZM502.178 252.704C514.042 254.536 515.001 254.843 518.597 257.983C526.618 264.982 529.418 276.105 525.788 286.541L524.354 290.661L522.087 284.673C518.159 274.305 511.394 269.028 501.928 268.951C498.967 268.926 495.135 268.099 493.414 267.112C489.283 264.746 481.674 264.761 477.074 267.145C473.145 269.18 472.674 268.509 474.556 263.55C476.758 257.745 481.258 253.374 487.201 251.923C489.635 251.329 496.044 251.642 502.178 252.704Z" fill="white"/>
<path d="M671.358 349.961V403.021H665.401C664.077 374.239 655.802 359.848 640.576 359.848H551.87V461.684H611.449C617.848 461.684 622.041 459.047 624.026 453.774C626.012 448.281 627.447 439.823 628.329 428.398H634.287V504.527H628.329C627.447 493.102 626.012 484.753 624.026 479.48C622.041 473.987 617.848 471.241 611.449 471.241H551.87V563.519C551.87 567.474 553.525 570.33 556.835 572.088C560.145 573.846 565.11 574.725 571.73 574.725H580.997V580.657H504.869V574.725H514.137C520.757 574.725 525.722 573.846 529.032 572.088C532.342 570.33 533.996 567.474 533.996 563.519V367.428C533.996 363.473 532.342 360.617 529.032 358.859C525.722 357.102 520.757 356.223 514.137 356.223H504.869V349.961H671.358Z" fill="white"/>
<path d="M390.641 574.725H399.911C406.533 574.725 411.5 573.846 414.811 572.088C418.122 570.33 419.777 567.474 419.777 563.519V367.428C419.777 363.473 418.122 360.617 414.811 358.859C411.5 357.102 406.533 356.223 399.911 356.223H390.641V349.961H466.793V356.223H457.522C450.9 356.223 445.934 357.102 442.623 358.859C439.312 360.617 437.656 363.473 437.656 367.428V563.519C437.656 567.474 439.312 570.33 442.623 572.088C445.934 573.846 450.9 574.725 457.522 574.725H466.793V580.657H390.641V574.725Z" fill="white"/>
<rect x="47.5" y="49.5" width="936" height="932" stroke="white" stroke-width="3"/>
<path d="M847.715 751.346L847.816 749.825H872.454C879.417 749.825 884.79 751.346 888.576 754.388C892.361 757.429 894.253 761.958 894.253 767.974C894.253 771.894 892.733 775.984 889.691 780.242C886.717 784.501 883.912 787.238 881.275 788.455L900.033 818.974L905.001 819.278C905.001 819.346 904.967 819.853 904.9 820.799L893.848 820.9L874.584 789.672H861.099V818.873L868.196 819.278C868.196 819.346 868.162 819.853 868.095 820.799L847.715 820.9L847.816 819.481L853.089 818.771C853.562 818.704 853.934 818.399 854.204 817.859V752.968C854.001 752.36 853.629 752.022 853.089 751.954L847.715 751.346ZM871.947 751.346H861.099V788.151H878.436C881.951 784.163 884.317 780.648 885.534 777.606C886.751 774.497 887.359 771.489 887.359 768.582C887.359 762.904 886.041 758.612 883.405 755.706C880.768 752.799 876.949 751.346 871.947 751.346Z" fill="white"/>
<path d="M793.748 751.346L793.849 749.825H837.245L837.144 750.129L838.462 764.425L836.434 765.236L834.812 751.853H807.233V784.602H831.466C831.804 784.67 832.108 784.602 832.378 784.399C832.649 784.129 832.784 783.791 832.784 783.386L833.189 776.39L834.812 776.187V793.525C834.744 793.525 834.237 793.558 833.291 793.626L832.885 786.63H807.233V818.771H837.549L839.476 802.549L841.402 803.055L839.881 820.799H814.128L793.748 820.9L793.849 819.481L799.122 818.771C799.798 818.704 800.203 818.264 800.338 817.453V753.272C800.203 752.461 799.798 752.022 799.122 751.954L793.748 751.346Z" fill="white"/>
<path d="M714.247 749.825C714.247 749.893 714.281 750.4 714.348 751.346L706.44 752.056L723.271 818.163L742.13 749.825H743.65L743.346 750.636L743.752 749.825L761.597 818.366L779.442 753.374C779.442 752.698 779.137 752.326 778.529 752.258L768.998 751.447L768.897 749.926L788.77 749.825C788.77 749.893 788.803 750.4 788.871 751.346L782.281 751.954L762.205 820.799H756.02L740.71 760.268L723.98 820.799H717.694L700.255 752.765C700.052 752.292 699.714 752.022 699.241 751.954L693.969 751.447L693.867 749.926L714.247 749.825Z" fill="white"/>
<path d="M631.547 785.515C631.547 774.362 634.386 765.473 640.064 758.849C645.809 752.225 652.94 748.913 661.457 748.913C681.398 748.913 691.368 761.113 691.368 785.515C691.368 796.736 688.529 805.59 682.851 812.079C677.173 818.501 670.042 821.712 661.457 821.712C641.517 821.712 631.547 809.646 631.547 785.515ZM638.442 785.312C638.442 808.227 646.113 819.684 661.457 819.684C668.082 819.684 673.557 816.642 677.883 810.559C682.276 804.475 684.473 796.06 684.473 785.312C684.473 762.398 676.801 750.94 661.457 750.94C654.901 750.94 649.426 754.016 645.032 760.167C640.638 766.318 638.442 774.7 638.442 785.312Z" fill="white"/>
<path d="M603.532 749.825C603.532 749.893 603.566 750.4 603.633 751.346L596.637 751.954V818.771H624.621L626.649 802.549L628.576 803.055L627.055 820.799H603.532L583.152 820.9L583.254 819.481L588.526 818.771C589.202 818.704 589.608 818.264 589.743 817.453V753.272C589.608 752.461 589.202 752.022 588.526 751.954L583.254 751.447L583.152 749.926L603.532 749.825Z" fill="white"/>
<path d="M531.357 751.346L531.459 749.825H574.854L574.753 750.129L576.071 764.425L574.043 765.236L572.421 751.853H544.842V784.602H569.075C569.413 784.67 569.717 784.602 569.988 784.399C570.258 784.129 570.393 783.791 570.393 783.386L570.799 776.39L572.421 776.187V793.525C572.353 793.525 571.846 793.558 570.9 793.626L570.494 786.63H544.842V818.873L551.838 819.278C551.838 819.346 551.805 819.853 551.737 820.799L531.357 820.9L531.459 819.481L536.731 818.771C537.407 818.704 537.813 818.264 537.948 817.453V753.272C537.813 752.461 537.407 752.022 536.731 751.954L531.357 751.346Z" fill="white"/>
<path d="M467.059 818.872C472.061 818.872 476.454 817.419 480.24 814.513C484.025 811.538 485.918 807.043 485.918 801.028C485.918 798.324 485.242 796.026 483.89 794.133C482.605 792.173 480.882 790.686 478.719 789.672C476.556 788.59 474.19 787.678 471.621 786.934C469.053 786.123 466.484 785.278 463.916 784.399C461.347 783.521 458.981 782.473 456.818 781.256C454.655 780.04 452.898 778.316 451.546 776.085C450.262 773.855 449.619 771.185 449.619 768.075C449.619 762.668 451.478 758.24 455.196 754.793C458.914 751.346 463.882 749.622 470.101 749.622C476.319 749.622 482.268 750.332 487.945 751.751L489.061 764.425L487.134 765.236L486.12 757.226C481.118 753.509 476.421 751.65 472.027 751.65C467.633 751.65 463.949 753.002 460.975 755.706C458.001 758.342 456.514 762.33 456.514 767.67C456.514 770.779 457.765 773.246 460.266 775.071C462.767 776.896 465.774 778.316 469.289 779.33C472.872 780.344 476.421 781.493 479.935 782.777C483.518 784.061 486.56 786.224 489.061 789.266C491.562 792.308 492.812 796.262 492.812 801.129C492.812 807.686 490.48 812.62 485.816 815.932C481.152 819.244 475.001 820.9 467.363 820.9C459.725 820.9 453.101 818.839 447.49 814.715L447.592 803.968L449.518 803.461L449.721 809.24C451.546 811.809 454.047 814.073 457.224 816.033C460.401 817.926 463.679 818.872 467.059 818.872Z" fill="white"/>
<path d="M431.754 756.314V753.07C431.754 750.771 431.72 749.183 431.653 748.304H430.639L434.086 748C434.086 748.946 434.052 749.893 433.985 750.839C433.917 751.785 433.849 752.664 433.782 753.475C433.782 754.219 433.748 754.928 433.68 755.604C433.613 756.28 433.545 756.889 433.478 757.429C433.41 757.97 433.342 758.443 433.275 758.849C433.207 759.187 433.14 759.559 433.072 759.964L431.653 760.167L431.754 759.052C431.754 758.308 431.754 757.396 431.754 756.314Z" fill="white"/>
<path d="M401.046 749.825C401.046 749.893 401.08 750.4 401.147 751.346L394.151 751.954V818.771H422.135L424.163 802.549L426.089 803.055L424.569 820.799H401.046L380.666 820.9L380.767 819.481L386.04 818.771C386.716 818.704 387.121 818.264 387.256 817.453V753.272C387.121 752.461 386.716 752.022 386.04 751.954L380.767 751.447L380.666 749.926L401.046 749.825Z" fill="white"/>
<path d="M326.396 751.346L326.498 749.825H369.893L369.792 750.129L371.11 764.425L369.082 765.236L367.46 751.853H339.882V784.602H364.114C364.452 784.67 364.756 784.602 365.027 784.399C365.297 784.129 365.432 783.791 365.432 783.386L365.838 776.39L367.46 776.187V793.525C367.392 793.525 366.885 793.558 365.939 793.626L365.534 786.63H339.882V818.771H370.198L372.124 802.549L374.05 803.055L372.53 820.799H346.776L326.396 820.9L326.498 819.481L331.77 818.771C332.446 818.704 332.852 818.264 332.987 817.453V753.272C332.852 752.461 332.446 752.022 331.77 751.954L326.396 751.346Z" fill="white"/>
<path d="M272.047 751.346L272.148 749.825H293.846C308.446 749.825 315.747 755.537 315.747 766.96C315.747 771.354 312.84 776.153 307.027 781.358C315.611 783.453 319.904 789.604 319.904 799.811C319.904 807.787 317.876 813.296 313.82 816.338C309.832 819.312 303.681 820.799 295.367 820.799H292.427L272.047 820.9L272.148 819.481L277.421 818.771C278.097 818.704 278.502 818.264 278.637 817.453V753.374C278.502 752.495 278.097 752.022 277.421 751.954L272.047 751.346ZM297.395 781.966H285.532V819.278H294.86C306.959 819.278 313.009 812.924 313.009 800.217C313.009 793.727 311.691 789.063 309.055 786.224C306.486 783.386 302.6 781.966 297.395 781.966ZM297.902 780.445C300.403 780.445 302.566 780.58 304.391 780.851C307.365 776.187 308.852 771.759 308.852 767.568C308.852 756.753 303.681 751.346 293.339 751.346H285.532V780.445H297.902Z" fill="white"/>
<path d="M202.555 820.9L202.656 819.481L207.928 818.771C208.402 818.704 208.807 818.264 209.145 817.453L231.046 749.825H237.738L261.058 818.873L268.054 819.278C268.054 819.346 268.02 819.853 267.952 820.799L247.674 820.9C247.674 820.292 247.708 819.819 247.775 819.481L253.048 818.771C253.588 818.704 253.859 818.298 253.859 817.554L248.282 801.028H216.648L211.274 818.67L223.036 819.278C223.036 819.346 223.002 819.853 222.934 820.799L202.555 820.9ZM231.755 751.751L217.256 799H247.573L231.755 751.751Z" fill="white"/>
<path d="M173.676 818.872C178.678 818.872 183.072 817.419 186.857 814.513C190.642 811.538 192.535 807.043 192.535 801.028C192.535 798.324 191.859 796.026 190.507 794.133C189.223 792.173 187.499 790.686 185.336 789.672C183.173 688.59 180.807 787.678 178.239 786.934C175.67 786.123 173.101 785.278 170.533 784.399C167.964 783.521 165.598 782.473 163.435 781.256C161.272 780.04 159.515 778.316 158.163 776.085C156.879 773.855 156.237 771.185 156.237 768.075C156.237 762.668 158.095 758.24 161.813 754.793C165.531 751.346 170.499 749.622 176.718 749.622C182.936 749.622 188.885 750.332 194.563 751.751L195.678 764.425L193.751 765.236L192.738 757.226C187.736 753.509 183.038 751.65 178.644 751.65C174.251 751.65 170.567 753.002 167.592 755.706C164.618 758.342 163.131 762.33 163.131 767.67C163.131 770.779 164.382 773.246 166.883 775.071C169.384 776.896 172.392 778.316 175.907 779.33C179.489 780.344 183.038 781.493 186.553 782.777C190.135 784.061 193.177 786.224 195.678 789.266C198.179 792.308 199.429 796.262 199.429 801.129C199.429 807.686 197.097 812.62 192.433 815.932C187.769 819.244 181.618 820.9 173.98 820.9C166.342 820.9 159.718 818.839 154.107 814.715L154.209 803.968L156.135 803.461L156.338 809.24C158.163 811.809 160.664 814.073 163.841 816.033C167.018 817.926 170.296 818.872 173.676 818.872Z" fill="white"/>
<path d="M126 820.9L126.101 819.481L131.374 818.771C132.05 818.704 132.455 818.264 132.59 817.453H132.692V753.374H132.59C132.455 752.495 132.05 752.022 131.374 751.954L126.101 751.447L126 749.926L146.38 749.825C146.38 749.893 146.413 750.4 146.481 751.346L139.586 751.954V818.873L146.481 819.278C146.481 819.346 146.447 819.853 146.38 820.799L126 820.9Z" fill="white"/>
</svg>
